<svg width="100%" height="100%" viewBox="0 0 115 115" fill="none" xmlns="http://www.w3.org/2000/svg">
<g id="icons8:idea">
<path id="Vector" d="M24.4842 8.64658L19.4242 13.6994L26.9531 21.2247L32.0059 16.1719L24.4806 8.64658H24.4842ZM90.5194 8.64658L82.9905 16.1719L88.0469 21.2247L95.5722 13.703L90.5158 8.64658H90.5194ZM57.5 10.8891C56.3141 10.9035 55.1137 10.9717 53.9062 11.1191C53.8703 11.1191 53.8344 11.1119 53.7984 11.1191C39.2222 12.7902 27.6216 24.5669 25.6055 39.0784C23.9955 50.7581 28.8111 61.3489 36.8359 68.1699C40.1185 70.9713 42.3388 74.8156 43.125 79.0589V100.621H51.3187C52.5694 102.767 54.8514 104.215 57.5 104.215C60.1486 104.215 62.4306 102.767 63.6812 100.621H71.875V86.2464H72.2128V81.977C72.2128 76.7086 74.9512 71.397 79.4003 67.2678C85.3516 61.3094 89.8438 52.8461 89.8438 43.125C89.8438 25.3719 75.2316 10.7238 57.5 10.8891V10.8891ZM57.5 18.0766C71.3898 17.8825 82.6562 29.2531 82.6562 43.125C82.6562 50.6503 79.1703 57.2772 74.3439 62.1L74.4589 62.215C69.6626 66.6379 66.5612 72.5966 65.6902 79.0625H49.9711C49.1805 72.9028 46.5391 66.9408 41.5473 62.6642C35.1972 57.2736 31.413 49.1517 32.678 39.9805C34.2484 28.6602 43.4341 19.5572 54.6897 18.3102C55.619 18.1806 56.5548 18.1038 57.4928 18.0802L57.5 18.0766ZM7.1875 43.125V50.3125H17.9688V43.125H7.1875ZM97.0312 43.125V50.3125H107.812V43.125H97.0312ZM26.9531 72.2128L19.4278 79.7345L24.4842 84.7909L32.0023 77.2656L26.9531 72.2128ZM88.0469 72.2128L82.9941 77.2656L90.5158 84.7909L95.5722 79.7345L88.0469 72.2128ZM50.3125 86.25H64.6875V93.4375H50.3125V86.25Z" fill="#fff"/>
</g>
</svg>
