<svg width="100%" height="100%" viewBox="0 0 120 120" fill="none" xmlns="http://www.w3.org/2000/svg">
<g id="bx:bx-code-alt">
<path id="Vector" d="M36.8749 83.9051L43.1249 76.0951L23.0049 60.0001L43.1249 43.905L36.8749 36.095L11.8749 56.0951C11.2892 56.5635 10.8163 57.1577 10.4913 57.8336C10.1663 58.5096 9.99759 59.25 9.99759 60.0001C9.99759 60.7501 10.1663 61.4905 10.4913 62.1665C10.8163 62.8424 11.2892 63.4366 11.8749 63.9051L36.8749 83.9051ZM83.1249 36.095L76.8749 43.905L96.9949 60.0001L76.8749 76.0951L83.1249 83.9051L108.125 63.9051C108.711 63.4366 109.184 62.8424 109.509 62.1665C109.834 61.4905 110.002 60.7501 110.002 60.0001C110.002 59.25 109.834 58.5096 109.509 57.8336C109.184 57.1577 108.711 56.5635 108.125 56.0951L83.1249 36.095ZM74.8799 16.08L54.8799 106.08L45.1149 103.91L65.1149 13.91L74.8799 16.08Z" fill="#fff"/>
</g>
</svg>
