<svg width="84" height="50" viewBox="0 0 84 50" fill="none" xmlns="http://www.w3.org/2000/svg">
<g clip-path="url(#clip0)">
<path d="M23.6575 18.117C23.6575 19.1422 23.7686 19.9732 23.9624 20.5827C24.2085 21.2684 24.5047 21.935 24.8487 22.5771C24.9873 22.7987 25.0425 23.0203 25.0425 23.2144C25.0425 23.4912 24.8765 23.7683 24.5163 24.0454L22.7712 25.2088C22.5219 25.3752 22.2726 25.4582 22.0507 25.4582C21.7739 25.4582 21.4967 25.3196 21.2196 25.0703C20.8464 24.6691 20.5125 24.2332 20.2226 23.7683C19.9454 23.2977 19.6683 22.7709 19.3637 22.134C17.2029 24.6824 14.4879 25.9569 11.2193 25.9569C8.89249 25.9569 7.03628 25.2918 5.67876 23.9624C4.32157 22.6324 3.62909 20.8595 3.62909 18.6435C3.62909 16.2889 4.46014 14.3775 6.15 12.9369C7.83955 11.4964 10.0837 10.7761 12.9369 10.7761C13.8788 10.7761 14.8484 10.8592 15.8732 10.9977C16.8984 11.1363 17.951 11.3578 19.0592 11.6072V9.58497C19.0592 7.47941 18.6157 6.01144 17.7569 5.15261C16.8706 4.29379 15.3745 3.87811 13.2415 3.87811C12.2719 3.87811 11.2748 3.98922 10.2497 4.23856C9.22484 4.48758 8.22746 4.79248 7.25785 5.18039C6.81471 5.37418 6.48236 5.48497 6.28824 5.54052C6.09445 5.59608 5.95589 5.62353 5.8451 5.62353C5.45719 5.62353 5.2634 5.34641 5.2634 4.76471V3.40719C5.2634 2.96405 5.31896 2.6317 5.45719 2.43791C5.59576 2.24379 5.8451 2.05 6.23301 1.85621C7.20262 1.35752 8.36602 0.941831 9.72321 0.609478C11.0811 0.249347 12.5216 0.0833342 14.0451 0.0833342C17.3418 0.0833342 19.752 0.831046 21.3033 2.32712C22.8268 3.82288 23.6026 6.09445 23.6026 9.14183V18.117H23.6582H23.6575ZM12.4105 22.3278C13.3248 22.3278 14.2667 22.1618 15.2637 21.8291C16.2611 21.4967 17.1477 20.8873 17.8954 20.0562C18.3389 19.5301 18.6712 18.9484 18.8373 18.2833C19.0036 17.6186 19.1144 16.815 19.1144 15.8732V14.7098C18.2743 14.5053 17.4234 14.3481 16.5657 14.2389C15.702 14.1292 14.8324 14.0736 13.9618 14.0725C12.1056 14.0725 10.7484 14.4327 9.83432 15.1807C8.91994 15.9288 8.4768 16.9814 8.4768 18.3663C8.4768 19.6683 8.80916 20.6379 9.50164 21.3029C10.1667 21.9954 11.1363 22.3278 12.4105 22.3278ZM34.6552 25.3196C34.1565 25.3196 33.8242 25.2366 33.6026 25.0425C33.381 24.8765 33.1869 24.4886 33.0209 23.9624L26.5111 2.54869C26.3444 1.99445 26.2614 1.63431 26.2614 1.44052C26.2614 0.997386 26.483 0.747713 26.9265 0.747713H29.6412C30.1673 0.747713 30.5278 0.831047 30.7216 1.02484C30.9431 1.19118 31.1095 1.57909 31.2755 2.10523L35.9294 20.4441L40.251 2.10523C40.3895 1.55131 40.5559 1.19118 40.7771 1.02484C40.999 0.858824 41.3869 0.74804 41.8856 0.74804H44.1016C44.6278 0.74804 44.9882 0.831047 45.2095 1.02484C45.4314 1.19118 45.6252 1.57909 45.736 2.10523L50.1131 20.6657L54.9052 2.10523C55.0712 1.55131 55.2654 1.19118 55.4592 1.02484C55.6807 0.858824 56.0409 0.74804 56.5396 0.74804H59.1157C59.5592 0.74804 59.8085 0.969609 59.8085 1.44052C59.8085 1.57909 59.7807 1.71765 59.7529 1.88366C59.7252 2.05 59.6699 2.27157 59.5592 2.57647L52.8827 23.9899C52.7167 24.5441 52.5229 24.9042 52.301 25.0703C52.0794 25.2366 51.7193 25.3474 51.2487 25.3474H48.8663C48.3399 25.3474 47.9797 25.2644 47.7579 25.0703C47.5363 24.8765 47.3425 24.5163 47.2317 23.9624L42.9376 6.09445L38.6716 23.9343C38.5333 24.4886 38.367 24.8487 38.1454 25.0425C37.9239 25.2366 37.536 25.3196 37.0376 25.3196H34.6549H34.6552ZM70.2523 26.0676C68.8118 26.0676 67.3712 25.9013 65.9863 25.569C64.601 25.2366 63.5209 24.8761 62.8007 24.4611C62.3572 24.2114 62.0523 23.9346 61.9418 23.6853C61.834 23.4408 61.7773 23.1767 61.7755 22.9095V21.4967C61.7755 20.915 61.9971 20.6379 62.4128 20.6379C62.5824 20.6385 62.7508 20.6667 62.9114 20.7212C63.0775 20.7768 63.3268 20.8873 63.6039 20.998C64.5824 21.4284 65.6038 21.7534 66.651 21.9676C67.7361 22.1879 68.8405 22.2992 69.9477 22.3C71.6928 22.3 73.0503 21.9954 73.9922 21.3859C74.934 20.7765 75.4327 19.8902 75.4327 18.7542C75.4327 17.9788 75.1833 17.3415 74.6846 16.815C74.186 16.2889 73.2441 15.818 71.8869 15.3745L67.8699 14.1281C65.8477 13.4908 64.352 12.549 63.4376 11.3023C62.5235 10.0833 62.0526 8.72614 62.0526 7.28562C62.0526 6.12222 62.302 5.09706 62.8007 4.21046C63.299 3.32418 63.9641 2.54869 64.7951 1.93922C65.6261 1.30196 66.568 0.831047 67.6762 0.498694C68.784 0.166341 69.9474 0.0277786 71.1663 0.0277786C71.7758 0.0277786 72.4131 0.0555564 73.0226 0.138563C73.6598 0.221569 74.2415 0.332354 74.8232 0.443138C75.3771 0.5817 75.9036 0.720262 76.4023 0.886602C76.901 1.05262 77.2886 1.21895 77.5657 1.38497C77.9536 1.60686 78.2304 1.82843 78.3967 2.07778C78.5631 2.29935 78.6461 2.60392 78.6461 2.99183V4.29379C78.6461 4.87549 78.4245 5.18039 78.0088 5.18039C77.7873 5.18039 77.4271 5.06928 76.9565 4.84771C75.3771 4.12745 73.6043 3.76732 71.6376 3.76732C70.0585 3.76732 68.8118 4.01667 67.953 4.54314C67.0945 5.06928 66.651 5.87288 66.651 7.0085C66.651 7.78431 66.9281 8.44902 67.482 8.97549C68.0363 9.50163 69.0611 10.0281 70.5294 10.499L74.4631 11.7458C76.4575 12.383 77.898 13.2693 78.7569 14.4049C79.6157 15.5408 80.0314 16.8428 80.0314 18.2833C80.0314 19.4745 79.7817 20.5549 79.3108 21.4967C78.8124 22.4386 78.1474 23.2696 77.2886 23.9346C76.4297 24.6271 75.4049 25.1258 74.2137 25.4859C72.967 25.8739 71.665 26.0676 70.2523 26.0676V26.0676Z" fill="#252F3E"/>
<path d="M75.4879 39.5307C66.3742 46.2624 53.1324 49.836 41.7471 49.836C25.7905 49.836 11.4134 43.9353 0.554256 34.1288C-0.304567 33.3533 0.470923 32.3007 1.49576 32.9098C13.2415 39.7248 27.7297 43.8523 42.7167 43.8523C52.8278 43.8523 63.9363 41.7471 74.1585 37.4255C75.682 36.7327 76.984 38.4229 75.4879 39.5307V39.5307ZM79.2833 35.2092C78.1199 33.7134 71.582 34.4889 68.618 34.849C67.7314 34.9601 67.5928 34.1843 68.3964 33.6026C73.6043 29.9458 82.1644 30.9987 83.1614 32.2173C84.1588 33.4641 82.8843 42.0239 78.0088 46.1239C77.2611 46.7611 76.5409 46.4288 76.8732 45.5977C77.9811 42.8549 80.4467 36.6775 79.2833 35.2092V35.2092Z" fill="#FF9900"/>
</g>
<defs>
<clipPath id="clip0">
<rect width="83.6601" height="50" fill="white"/>
</clipPath>
</defs>
</svg>
