<svg width="45" height="50" viewBox="0 0 45 50" fill="none" xmlns="http://www.w3.org/2000/svg">
<g clip-path="url(#clip0)">
<path d="M44.3696 14.6619C44.3693 13.8234 44.1899 13.0824 43.8273 12.4466C43.471 11.8211 42.9375 11.297 42.2219 10.8826C36.3148 7.47648 30.4019 4.08082 24.4967 0.671269C22.9047 -0.247829 21.3611 -0.214148 19.7809 0.718144C17.4297 2.1046 5.65799 8.84888 2.15017 10.8806C0.705556 11.7171 0.00260417 12.997 0.00225694 14.6603C0 21.5102 0.00225694 28.36 0 35.2098C0 36.03 0.172049 36.7567 0.51875 37.3829C0.875174 38.0272 1.41615 38.5657 2.14826 38.9895C5.65625 41.0213 17.4295 47.765 19.7802 49.152C21.3611 50.0848 22.9047 50.1182 24.4972 49.1989C30.4026 45.7892 36.3158 42.3935 42.2238 38.9874C42.9559 38.5638 43.4969 38.0249 43.8533 37.3812C44.1995 36.7548 44.3719 36.0282 44.3719 35.2079C44.3719 35.2079 44.3719 21.5119 44.3696 14.6619Z" fill="#A179DC"/>
<path d="M22.2538 24.8682L0.518768 37.3828C0.875192 38.0271 1.41616 38.5656 2.14828 38.9894C5.65627 41.0212 17.4295 47.7649 19.7802 49.1519C21.3611 50.0847 22.9047 50.1181 24.4972 49.1988C30.4026 45.7891 36.3158 42.3934 42.2238 38.9873C42.9559 38.5637 43.4969 38.0248 43.8533 37.3811L22.2538 24.8682" fill="#280068"/>
<path d="M44.3696 14.6618C44.3693 13.8233 44.1899 13.0823 43.8273 12.4465L22.2538 24.8684L43.8533 37.3811C44.1995 36.7547 44.3715 36.0281 44.3719 35.2078C44.3719 35.2078 44.3719 21.5118 44.3696 14.6618" fill="#390091"/>
<path d="M35.0507 20.1899V22.5292H37.3899V20.1899H38.5596V22.5292H40.8988V23.6988H38.5596V26.0378H40.8988V27.2075H38.5596V29.5467H37.3899V27.2075H35.0507V29.5467H33.8811V27.2075H31.542V26.0378H33.8811V23.6988H31.542V22.5292H33.8811V20.1899H35.0507ZM37.3899 23.6986H35.0507V26.0378H37.3899V23.6988V23.6986Z" fill="white"/>
<path d="M22.3016 8.44201C28.403 8.44201 33.7299 11.7555 36.5832 16.6809L36.5554 16.6335L29.3766 20.7668C27.9623 18.3722 25.3696 16.7561 22.3952 16.7227L22.3014 16.7222C17.7658 16.7222 14.0887 20.3993 14.0887 24.9349C14.0872 26.3645 14.4607 27.7694 15.1719 29.0095C16.5875 31.4809 19.2488 33.1477 22.3016 33.1477C25.3733 33.1477 28.0497 31.4597 29.458 28.962L29.4238 29.0219L36.5917 33.1743C33.7696 38.058 28.5156 41.3613 22.4853 41.4271L22.3016 41.4281C16.1809 41.4281 10.8389 38.0941 7.99272 33.1427C6.60331 30.7255 5.80835 27.9233 5.80835 24.9349C5.80835 15.8262 13.1924 8.44183 22.3014 8.44183L22.3016 8.44201Z" fill="white"/>
</g>
<defs>
<clipPath id="clip0">
<rect width="44.4444" height="50" fill="white"/>
</clipPath>
</defs>
</svg>
