<svg width="50" height="50" viewBox="0 0 50 50" fill="none" xmlns="http://www.w3.org/2000/svg">
<rect width="50" height="50" fill="#512BD4"/>
<path d="M9.11165 17.0984V32.9449H10.9682V21.4842C10.9836 20.759 10.9527 20.0336 10.8757 19.3124H10.9464C11.0811 19.6587 11.2511 19.9915 11.4497 20.3025L19.6103 32.9367H21.8844V17.0984H20.036V28.24C20.0142 29.0182 20.0578 29.7965 20.1489 30.568H20.1067C19.9034 30.2075 19.6884 29.8537 19.462 29.5072L11.5204 17.0998L9.11165 17.0984ZM26 17.0984V32.9449H34.4368L34.4436 31.205H27.8974V25.7082H33.6289V24.039H27.8974V18.7759H34.0464V17.0998L26 17.0984ZM35.8608 17.0984V18.7745H40.4226V32.9435H42.2791V18.7745H46.8912V17.0984H35.8608ZM4.54986 30.6807C4.39373 30.6848 4.24 30.7201 4.09774 30.7845C3.95548 30.8488 3.82757 30.941 3.72156 31.0556C3.49353 31.288 3.36646 31.6008 3.36794 31.9262C3.36581 32.1698 3.43653 32.4085 3.57103 32.6117C3.70554 32.8149 3.89771 32.9734 4.12295 33.0669C4.34819 33.1604 4.59625 33.1846 4.83538 33.1365C5.0745 33.0884 5.2938 32.9701 5.46521 32.7968C5.69915 32.57 5.8338 32.2522 5.8338 31.9262C5.8338 31.6002 5.69915 31.2824 5.46521 31.0556C5.35337 30.9368 5.21827 30.8422 5.0683 30.7777C4.91832 30.7132 4.75667 30.6802 4.59339 30.6807H4.55122H4.54986Z" fill="white"/>
</svg>
