<svg width="50" height="50" viewBox="0 0 50 50" fill="none" xmlns="http://www.w3.org/2000/svg">
<path d="M9.0625 38.4375L9.32812 38.0672L21.8594 14.2953L21.8859 14.0437L16.3625 3.66875C16.2614 3.47903 16.1032 3.3259 15.9102 3.23104C15.7173 3.13617 15.4994 3.10437 15.2874 3.14014C15.0755 3.1759 14.8801 3.27742 14.7289 3.43033C14.5778 3.58323 14.4786 3.77979 14.4453 3.99219L9.0625 38.4375Z" fill="#FFC24A"/>
<path d="M9.21875 38.1563L9.41875 37.7656L21.8203 14.2406L16.3109 3.825C16.2201 3.64387 16.073 3.49705 15.8917 3.40653C15.7104 3.31602 15.5046 3.2867 15.3052 3.32295C15.1059 3.3592 14.9236 3.45907 14.7858 3.60761C14.6479 3.75615 14.5619 3.94535 14.5406 4.14688L9.21875 38.1563Z" fill="#FFA712"/>
<path d="M25.9125 21.8906L30.025 17.6719L25.911 9.82657C25.8204 9.65772 25.6858 9.51659 25.5214 9.41821C25.357 9.31983 25.169 9.26787 24.9774 9.26787C24.7858 9.26787 24.5978 9.31983 24.4334 9.41821C24.269 9.51659 24.1343 9.65772 24.0438 9.82657L21.8453 14.0172V14.375L25.9125 21.8906Z" fill="#F4BD62"/>
<path d="M25.8391 21.7187L29.8375 17.625L25.8391 10C25.7737 9.83495 25.6619 9.69235 25.5172 9.58941C25.3726 9.48646 25.2012 9.42755 25.0238 9.41979C24.8465 9.41202 24.6706 9.45574 24.5175 9.54566C24.3644 9.63558 24.2406 9.76786 24.161 9.92656L21.9516 14.1906L21.886 14.4078L25.8391 21.7187Z" fill="#FFA50E"/>
<path d="M9.06561 38.4391L9.18593 38.3172L9.62186 38.1406L25.6531 22.1688L25.8562 21.6156L21.8578 13.9938L9.06561 38.4391V38.4391Z" fill="#F6820C"/>
<path d="M26.425 46.4938L40.9375 38.4016L36.7906 12.8844C36.7609 12.7045 36.6822 12.5363 36.5631 12.3982C36.4441 12.2601 36.2893 12.1575 36.1157 12.1017C35.9421 12.0458 35.7566 12.0389 35.5793 12.0816C35.4021 12.1243 35.24 12.215 35.1109 12.3438L9.0625 38.4375L23.4891 46.4922C23.9376 46.7425 24.4426 46.8738 24.9562 46.8738C25.4699 46.8738 25.9749 46.7425 26.4234 46.4922" fill="#FDE068"/>
<path d="M40.8047 38.3344L36.6922 13.0094C36.6849 12.8373 36.6268 12.6713 36.5251 12.5323C36.4235 12.3933 36.2829 12.2876 36.1211 12.2285C35.9593 12.1695 35.7837 12.1597 35.6164 12.2006C35.4491 12.2414 35.2977 12.3309 35.1813 12.4578L9.21875 38.3891L23.4859 46.3578C23.9309 46.606 24.4319 46.7363 24.9414 46.7363C25.4509 46.7363 25.9519 46.606 26.3969 46.3578L40.8047 38.3344Z" fill="#FCCA3F"/>
<path d="M26.425 46.25C25.9765 46.5003 25.4714 46.6316 24.9578 46.6316C24.4442 46.6316 23.9391 46.5003 23.4906 46.25L9.18125 38.3156L9.0625 38.4375L23.4891 46.4922C23.9376 46.7425 24.4426 46.8738 24.9562 46.8738C25.4699 46.8738 25.9749 46.7425 26.4234 46.4922L40.9375 38.4015L40.9016 38.1828L26.425 46.25Z" fill="#EEAB37"/>
</svg>
