<svg width="100%" height="100%" viewBox="0 0 107 107" fill="none" xmlns="http://www.w3.org/2000/svg">
<g clip-path="url(#clip0)">
<path d="M53.5 -6.10352e-05C39.3109 -6.10352e-05 25.703 5.63653 15.6698 15.6697C5.63659 25.7029 0 39.3109 0 53.4999C0 67.689 5.63659 81.297 15.6698 91.3302C25.703 101.363 39.3109 107 53.5 107C67.6891 107 81.297 101.363 91.3302 91.3302C101.363 81.297 107 67.689 107 53.4999C107 39.3109 101.363 25.7029 91.3302 15.6697C81.297 5.63653 67.6891 -6.10352e-05 53.5 -6.10352e-05V-6.10352e-05ZM67.6017 97.1158H67.1871C66.8756 97.1334 66.5639 97.0871 66.271 96.9798C65.9781 96.8724 65.7103 96.7063 65.484 96.4916C65.2749 96.2706 65.1119 96.0101 65.0048 95.7253C64.8976 95.4405 64.8483 95.1372 64.8598 94.8332V88.5647C64.8866 86.4827 64.9044 84.3739 64.9044 82.2517C64.8971 80.6999 64.6705 79.1569 64.2312 77.6686C63.8151 76.164 62.9765 74.8102 61.8148 73.7675C64.9222 73.4675 67.9769 72.7616 70.9009 71.6677C73.3673 70.7297 75.5983 69.2627 77.4368 67.3698C79.2513 65.4661 80.6022 63.1656 81.3824 60.6556C82.3315 57.5817 82.783 54.3758 82.7199 51.1593C82.7373 48.9135 82.3445 46.6835 81.5608 44.5788C80.7644 42.4575 79.5603 40.5128 78.0164 38.8543C78.3497 38.0179 78.5918 37.1479 78.7386 36.2596C78.8857 35.3679 78.9615 34.4673 78.9615 33.5667C78.9615 32.4076 78.8278 31.2484 78.5603 30.1204C78.3173 28.9635 77.9879 27.8264 77.575 26.7187C77.4174 26.6572 77.2493 26.627 77.0801 26.6296H76.5897C75.5643 26.6385 74.5567 26.8079 73.5848 27.1244C72.5142 27.4369 71.4669 27.8243 70.4506 28.2836C69.4399 28.7366 68.4559 29.2472 67.5036 29.8128C66.5451 30.379 65.698 30.9229 64.949 31.4267C57.4489 29.3363 49.5199 29.3363 42.0198 31.4267C41.1834 30.8675 40.333 30.3294 39.4696 29.8128C38.5038 29.2425 37.5032 28.7332 36.4736 28.2881C35.4601 27.8135 34.4087 27.4243 33.3305 27.1244C32.3777 26.8097 31.3824 26.6428 30.3791 26.6296H29.8887C29.721 26.6272 29.5544 26.6575 29.3983 26.7187C28.9794 27.828 28.6368 28.9645 28.3728 30.1204C28.1321 31.2529 28.0162 32.4076 28.0117 33.5667C28.0117 34.4673 28.0875 35.3679 28.2391 36.2596C28.3862 37.1468 28.6225 38.0161 28.9524 38.8543C27.4125 40.515 26.2129 42.4613 25.4214 44.5833C24.6335 46.6872 24.2362 48.9172 24.2489 51.1638C24.1865 54.363 24.6258 57.5522 25.5507 60.6154C26.3577 63.1255 27.7041 65.4304 29.4919 67.3743C31.3421 69.2557 33.5713 70.718 36.0278 71.6721C38.9391 72.7867 41.9886 73.5 45.0916 73.7943C44.2252 74.5795 43.5379 75.542 43.0764 76.6164C42.6374 77.679 42.3377 78.7939 42.1848 79.9334C40.5489 80.7166 38.7599 81.1277 36.9462 81.1371C35.2619 81.2045 33.5996 80.7363 32.1981 79.7997C30.8536 78.8033 29.7151 77.5557 28.8454 76.126C28.4562 75.5254 28.021 74.956 27.5436 74.4229C27.04 73.8622 26.4847 73.3502 25.8851 72.8937C25.2941 72.4521 24.6463 72.0922 23.9591 71.8237C23.283 71.5273 22.5529 71.3739 21.8146 71.3734C21.6363 71.3779 21.458 71.3957 21.2796 71.418C21.0361 71.4172 20.7934 71.4471 20.5574 71.5071C20.3499 71.5615 20.1537 71.652 19.9778 71.7747C19.8978 71.8187 19.8309 71.8832 19.7839 71.9615C19.737 72.0398 19.7115 72.1292 19.7103 72.2205C19.729 72.435 19.7946 72.6429 19.9025 72.8293C20.0103 73.0157 20.1578 73.1762 20.3345 73.2994C20.7491 73.6293 21.0924 73.8834 21.3688 74.0618L21.5025 74.1554C22.0955 74.6146 22.6662 75.1095 23.2056 75.64C23.705 76.0769 24.1553 76.5718 24.5431 77.1113C24.9444 77.6418 25.2921 78.208 25.573 78.8099C25.8985 79.4073 26.2418 80.0939 26.6029 80.8741C27.441 82.9874 28.9301 84.7751 30.8561 85.9789C32.8758 87.0623 35.1406 87.6017 37.4366 87.5438C38.2124 87.5438 38.9926 87.4992 39.7639 87.41C40.5307 87.2852 41.2931 87.1559 42.0599 87.0043V94.7752C42.0738 95.0885 42.0214 95.4012 41.9062 95.6929C41.7909 95.9846 41.6154 96.2487 41.3911 96.4679C41.1669 96.6872 40.8989 96.8566 40.6046 96.9652C40.3104 97.0737 39.9965 97.119 39.6836 97.098H39.4072C29.0106 93.7393 20.1546 86.7791 14.4342 77.4707C8.71368 68.1622 6.50455 57.1172 8.20459 46.3246C9.90462 35.532 15.4021 25.7009 23.7071 18.6017C32.012 11.5025 42.5788 7.60171 53.5045 7.60171C64.4302 7.60171 74.9969 11.5025 83.3019 18.6017C91.6068 25.7009 97.1043 35.532 98.8043 46.3246C100.504 57.1172 98.2952 68.1622 92.5748 77.4707C86.8543 86.7791 77.9984 93.7393 67.6017 97.098V97.1203V97.1158Z" fill="#1e1e1e"/>
</g>
<defs>
<clipPath id="clip0">
<rect width="107" height="107" fill="white"/>
</clipPath>
</defs>
</svg>
