<svg width="45" height="50" viewBox="0 0 45 50" fill="none" xmlns="http://www.w3.org/2000/svg">
<rect width="44.9405" height="50" fill="#5F488B"/>
<path d="M37.6552 4.03509C39.7187 4.03509 41.3956 5.68387 41.4291 7.73089L41.4295 7.79299V42.0316C41.4295 44.0861 39.7731 45.7557 37.7176 45.789L37.6552 45.7895H7.46082C5.39734 45.7895 3.72043 44.1403 3.68697 42.0938L3.68652 42.0316V7.79299C3.68652 5.73803 5.34294 4.06885 7.39846 4.03553L7.46082 4.03509H37.6552ZM37.6552 6.12278H7.46082C6.55057 6.12278 5.80691 6.84911 5.78391 7.74998L5.78332 7.79299V42.0316C5.78332 42.9379 6.51282 43.6783 7.41762 43.7012L7.46082 43.7018H37.6552C38.5659 43.7018 39.3091 42.9756 39.3321 42.0747L39.3327 42.0316V7.79299C39.3327 6.8723 38.5805 6.12278 37.6552 6.12278V6.12278ZM13.1223 31.1756L17.8401 35.351L13.1223 39.5266V31.1755V31.1756ZM17.3159 10.2983V22.1518C19.4096 21.4734 22.3363 20.7368 25.1791 20.7368C27.7713 20.7368 29.3229 21.7515 30.1679 22.6028C31.9532 24.401 31.9957 26.6866 31.9933 26.9915V27L31.9938 39.5264H27.8002V27.0575C27.7795 26.083 27.3077 24.9123 25.1791 24.9123C20.9578 24.9123 16.2278 27.0051 16.0875 27.0676L16.0845 27.069L13.1223 28.4051V10.2982H17.3159V10.2983ZM31.9938 10.2983C31.7107 12.6699 30.745 14.9434 28.8486 17.0834H24.6548C26.303 14.9304 27.3378 12.6648 27.8002 10.2983H31.9938Z" fill="white"/>
</svg>
