<svg width="38" height="50" viewBox="0 0 38 50" fill="none" xmlns="http://www.w3.org/2000/svg">
<g clip-path="url(#clip0)">
<path d="M11.9777 38.6522C11.9777 38.6522 10.0628 39.7613 13.3405 40.1366C17.3115 40.5877 19.3408 40.5231 23.7169 39.6981C23.7169 39.6981 24.8674 40.4166 26.474 41.039C16.6644 45.2264 4.27258 40.7964 11.9777 38.6522" fill="#5382A1"/>
<path d="M10.779 33.1877C10.779 33.1877 8.63121 34.7712 11.9114 35.1091C16.1532 35.5449 19.503 35.5806 25.2996 34.4689C25.2996 34.4689 26.1014 35.2785 27.3621 35.7212C15.5015 39.1756 2.29095 35.9936 10.779 33.1877" fill="#5382A1"/>
<path d="M20.8845 23.9183C23.3016 26.69 20.2494 29.1842 20.2494 29.1842C20.2494 29.1842 26.3868 26.0286 23.5682 22.0769C20.9357 18.3919 18.9168 16.5607 29.8459 10.2477C29.8459 10.2477 12.6908 14.515 20.8845 23.9182" fill="#E76F00"/>
<path d="M33.8586 42.6939C33.8586 42.6939 35.2757 43.8568 32.2979 44.7565C26.6356 46.465 8.73075 46.9809 3.7568 44.8246C1.96886 44.05 5.32188 42.9749 6.37653 42.7491C7.47645 42.5116 8.10512 42.5559 8.10512 42.5559C6.11667 41.1607 -4.74732 45.2954 2.5868 46.4793C22.5878 49.71 39.0466 45.0247 33.8586 42.6939Z" fill="#5382A1"/>
<path d="M12.8984 27.526C12.8984 27.526 3.79102 29.6806 9.67337 30.4629C12.157 30.7941 17.1082 30.7192 21.7201 30.3342C25.4893 30.0178 29.2739 29.3444 29.2739 29.3444C29.2739 29.3444 27.9449 29.9113 26.9834 30.5652C17.7348 32.9879 -0.131761 31.8608 5.0118 29.3827C9.36172 27.2884 12.8986 27.526 12.8986 27.526" fill="#5382A1"/>
<path d="M29.2364 36.6217C38.6381 31.7558 34.2911 27.0798 31.257 27.7098C30.5133 27.8639 30.1818 27.9974 30.1818 27.9974C30.1818 27.9974 30.4579 27.5668 30.9851 27.3803C36.9875 25.2785 41.6038 33.5793 29.0475 36.8669C29.0475 36.867 29.193 36.7376 29.2364 36.6217" fill="#5382A1"/>
<path d="M23.5682 0.0536113C23.5682 0.0536113 28.775 5.24147 18.6297 13.2185C10.4944 19.6176 16.7746 23.2662 18.6264 27.4348C13.8776 23.1675 10.3926 19.4108 12.7307 15.9146C16.1622 10.7821 25.6689 8.29378 23.5682 0.0534668" fill="#E76F00"/>
<path d="M13.8224 49.8071C22.8468 50.3825 36.7047 49.4879 37.0329 45.2348C37.0329 45.2348 36.402 46.8473 29.5747 48.1276C21.8722 49.5712 12.3723 49.4027 6.73779 48.4775C6.73794 48.4775 7.89125 49.4283 13.8225 49.8071" fill="#5382A1"/>
</g>
<defs>
<clipPath id="clip0">
<rect width="37.1429" height="50" fill="white"/>
</clipPath>
</defs>
</svg>
