<svg width="90" height="90" viewBox="0 0 90 90" fill="none" xmlns="http://www.w3.org/2000/svg">
<path d="M75.9375 67.5C74.6847 67.5057 73.4493 67.7941 72.3234 68.3437L60.2297 56.25H50.625V61.875H57.8981L68.3466 72.3234C67.7965 73.4493 67.5072 74.6845 67.5 75.9375C67.5 77.6063 67.9949 79.2376 68.922 80.6251C69.8491 82.0127 71.1669 83.0941 72.7086 83.7327C74.2504 84.3714 75.9469 84.5384 77.5836 84.2129C79.2203 83.8873 80.7237 83.0837 81.9037 81.9037C83.0837 80.7237 83.8873 79.2203 84.2129 77.5836C84.5384 75.9469 84.3714 74.2504 83.7327 72.7086C83.0941 71.1669 82.0127 69.8491 80.6251 68.922C79.2376 67.9948 77.6063 67.5 75.9375 67.5ZM75.9375 78.75C75.3812 78.75 74.8375 78.5851 74.375 78.276C73.9124 77.967 73.552 77.5277 73.3391 77.0138C73.1262 76.4999 73.0705 75.9344 73.179 75.3888C73.2876 74.8432 73.5554 74.3421 73.9488 73.9488C74.3421 73.5554 74.8432 73.2876 75.3888 73.179C75.9344 73.0705 76.4999 73.1262 77.0138 73.3391C77.5277 73.552 77.967 73.9124 78.276 74.375C78.5851 74.8375 78.75 75.3812 78.75 75.9375C78.75 76.6834 78.4537 77.3988 77.9262 77.9262C77.3988 78.4537 76.6834 78.75 75.9375 78.75Z" fill="white"/>
<path d="M75.9375 36.5625C74.1982 36.5677 72.5031 37.1112 71.085 38.1183C69.6669 39.1255 68.5953 40.5469 68.0175 42.1875H50.625V47.8125H68.0175C68.5356 49.2671 69.4436 50.5512 70.6422 51.5246C71.8408 52.4981 73.2839 53.1233 74.8138 53.332C76.3437 53.5408 77.9015 53.325 79.3171 52.7082C80.7327 52.0915 81.9515 51.0975 82.8403 49.8349C83.7292 48.5724 84.2539 47.0897 84.3571 45.5491C84.4604 44.0085 84.1381 42.4691 83.4257 41.0992C82.7132 39.7294 81.6379 38.5817 80.3173 37.7816C78.9967 36.9815 77.4816 36.5598 75.9375 36.5625V36.5625ZM75.9375 47.8125C75.3812 47.8125 74.8375 47.6476 74.375 47.3385C73.9124 47.0295 73.552 46.5902 73.3391 46.0763C73.1262 45.5624 73.0705 44.9969 73.179 44.4513C73.2876 43.9057 73.5554 43.4046 73.9488 43.0113C74.3421 42.6179 74.8432 42.3501 75.3888 42.2416C75.9344 42.133 76.4999 42.1887 77.0138 42.4016C77.5277 42.6145 77.967 42.975 78.276 43.4375C78.5851 43.9 78.75 44.4438 78.75 45C78.75 45.7459 78.4537 46.4613 77.9262 46.9888C77.3988 47.5162 76.6834 47.8125 75.9375 47.8125Z" fill="white"/>
<path d="M75.9375 5.625C73.7004 5.62724 71.5556 6.5169 69.9738 8.09876C68.3919 9.68061 67.5022 11.8254 67.5 14.0625C67.5096 15.4098 67.8454 16.7348 68.4788 17.9241L57.9263 28.125H50.625V33.75H60.1987L72.5738 21.7913C73.7233 22.2925 74.9702 22.5312 76.2236 22.4898C77.477 22.4484 78.7054 22.128 79.8194 21.552C80.9334 20.976 81.9049 20.1588 82.6632 19.1599C83.4215 18.1611 83.9476 17.0057 84.2031 15.7779C84.4585 14.5501 84.437 13.2808 84.14 12.0624C83.8431 10.8439 83.2781 9.70707 82.4864 8.73451C81.6946 7.76195 80.6959 6.97819 79.563 6.44028C78.4302 5.90237 77.1916 5.62386 75.9375 5.625ZM75.9375 16.875C75.3812 16.875 74.8375 16.7101 74.375 16.401C73.9124 16.092 73.552 15.6527 73.3391 15.1388C73.1262 14.6249 73.0705 14.0594 73.179 13.5138C73.2876 12.9682 73.5554 12.4671 73.9488 12.0738C74.3421 11.6804 74.8432 11.4126 75.3888 11.304C75.9344 11.1955 76.4999 11.2512 77.0138 11.4641C77.5277 11.677 77.967 12.0374 78.276 12.5C78.5851 12.9625 78.75 13.5062 78.75 14.0625C78.75 14.8084 78.4537 15.5238 77.9262 16.0512C77.3988 16.5787 76.6834 16.875 75.9375 16.875Z" fill="white"/>
<path d="M50.625 16.875H56.25V11.25H50.625C49.0222 11.2554 47.4393 11.6052 45.9835 12.2758C44.5278 12.9464 43.2332 13.9222 42.1875 15.1369C41.1418 13.9222 39.8472 12.9464 38.3915 12.2758C36.9357 11.6052 35.3528 11.2554 33.75 11.25H30.9375C24.2265 11.2574 17.7925 13.9267 13.0471 18.6721C8.30168 23.4175 5.63244 29.8515 5.625 36.5625V53.4375C5.63244 60.1485 8.30168 66.5825 13.0471 71.3279C17.7925 76.0733 24.2265 78.7426 30.9375 78.75H33.75C35.3528 78.7446 36.9357 78.3948 38.3915 77.7242C39.8472 77.0536 41.1418 76.0778 42.1875 74.8631C43.2332 76.0778 44.5278 77.0536 45.9835 77.7242C47.4393 78.3948 49.0222 78.7446 50.625 78.75H56.25V73.125H50.625C49.1336 73.1235 47.7037 72.5304 46.6492 71.4758C45.5946 70.4213 45.0015 68.9914 45 67.5V22.5C45.0015 21.0086 45.5946 19.5787 46.6492 18.5242C47.7037 17.4696 49.1336 16.8765 50.625 16.875V16.875ZM33.75 73.125H30.9375C26.2081 73.1165 21.6396 71.4071 18.0663 68.3089C14.4931 65.2107 12.1535 60.9305 11.475 56.25H16.875V50.625H11.25V39.375H19.6875C21.9246 39.3728 24.0694 38.4831 25.6512 36.9012C27.2331 35.3194 28.1228 33.1746 28.125 30.9375V25.3125H22.5V30.9375C22.5 31.6834 22.2037 32.3988 21.6762 32.9262C21.1488 33.4537 20.4334 33.75 19.6875 33.75H11.475C12.1535 29.0695 14.4931 24.7893 18.0663 21.6911C21.6396 18.5929 26.2081 16.8835 30.9375 16.875H33.75C35.2414 16.8765 36.6713 17.4696 37.7258 18.5242C38.7804 19.5787 39.3735 21.0086 39.375 22.5V33.75H33.75V39.375H39.375V50.625H33.75C31.5129 50.6272 29.3681 51.5169 27.7863 53.0988C26.2044 54.6806 25.3147 56.8254 25.3125 59.0625V64.6875H30.9375V59.0625C30.9375 58.3166 31.2338 57.6012 31.7613 57.0738C32.2887 56.5463 33.0041 56.25 33.75 56.25H39.375V67.5C39.3735 68.9914 38.7804 70.4213 37.7258 71.4758C36.6713 72.5304 35.2414 73.1235 33.75 73.125V73.125Z" fill="white"/>
</svg>
