<svg width="84" height="50" viewBox="0 0 84 50" fill="none" xmlns="http://www.w3.org/2000/svg">
<g clip-path="url(#clip0)">
<path d="M19.6099 13.0358H35.2849V14.2778H21.0468V23.6252H34.436V24.8672H21.0468V35.1298H35.4482V36.3717H19.6099V13.0358ZM36.6893 13.0358H38.3547L45.7349 23.2984L53.2785 13.0356L63.5389 0L46.6819 24.377L55.3685 36.3717H53.6377L45.7349 25.4555L37.7994 36.3717H36.1014L44.8532 24.3769L36.6891 13.0358H36.6893ZM55.9889 14.2778V13.0356H73.8519V14.2777H65.6225V36.3715H64.1856V14.2778H55.9889V14.2778ZM0 13.0356H1.79608L26.5629 49.9811L16.3281 36.3715L1.50211 14.8006L1.43686 36.3718H0V13.0356ZM73.7072 34.7547C73.4135 34.7547 73.1934 34.5282 73.1934 34.235C73.1934 33.9421 73.4135 33.7152 73.7072 33.7152C74.0042 33.7152 74.2209 33.9419 74.2209 34.235C74.2209 34.528 74.0042 34.7547 73.7072 34.7547ZM75.119 33.3874H75.8879C75.8983 33.8024 76.2023 34.0816 76.6497 34.0816C77.1495 34.0816 77.4326 33.7816 77.4326 33.2199V29.6617H78.2154V33.2233C78.2154 34.235 77.6283 34.8176 76.6567 34.8176C75.7444 34.8176 75.119 34.2524 75.119 33.3872V33.3874ZM79.2394 33.3421H80.0153C80.0816 33.8199 80.5499 34.1233 81.2245 34.1233C81.8535 34.1233 82.3148 33.7989 82.3148 33.3524C82.3148 32.9688 82.0212 32.7385 81.3537 32.5816L80.7037 32.4246C79.7914 32.2117 79.3757 31.7722 79.3757 31.0327C79.3757 30.1362 80.1096 29.5396 81.2104 29.5396C82.2343 29.5396 82.9823 30.1361 83.0278 30.9838H82.2658C82.1925 30.5199 81.787 30.2303 81.1999 30.2303C80.5814 30.2303 80.1691 30.5269 80.1691 30.9803C80.1691 31.3395 80.4345 31.5455 81.0916 31.6989L81.6472 31.835C82.6817 32.0757 83.1081 32.4943 83.1081 33.2513C83.1081 34.2141 82.3603 34.8176 81.1651 34.8176C80.0467 34.8176 79.2952 34.2419 79.2394 33.3419V33.3421Z" fill="black"/>
</g>
<defs>
<clipPath id="clip0">
<rect width="83.1081" height="50" fill="white"/>
</clipPath>
</defs>
</svg>
