<svg width="45" height="50" viewBox="0 0 45 50" fill="none" xmlns="http://www.w3.org/2000/svg">
<g clip-path="url(#clip0)">
<path d="M22.1453 49.9077C21.4576 49.9077 20.8157 49.7243 20.2197 49.4034L14.1216 45.7812C13.2047 45.2769 13.6631 45.0935 13.9382 45.0018C15.1761 44.5892 15.4054 44.4975 16.6891 43.7637C16.8268 43.672 17.0102 43.7179 17.1476 43.8096L21.8244 46.6065C22.0078 46.6982 22.237 46.6982 22.3746 46.6065L40.6687 36.0153C40.8521 35.9236 40.9438 35.7402 40.9438 35.511V14.3741C40.9438 14.1449 40.8521 13.9615 40.6687 13.8698L22.3746 3.32429C22.1912 3.2326 21.9619 3.2326 21.8244 3.32429L3.53028 13.87C3.34689 13.9617 3.25519 14.1909 3.25519 14.3743V35.511C3.25519 35.6944 3.34689 35.9236 3.53028 36.0153L8.52803 38.9037C11.2332 40.2791 12.9294 38.6745 12.9294 37.0698V16.208C12.9294 15.9329 13.1588 15.6579 13.4798 15.6579H15.8182C16.0933 15.6579 16.3683 15.8871 16.3683 16.208V37.0696C16.3683 40.6918 14.3967 42.8008 10.958 42.8008C9.90346 42.8008 9.0782 42.8008 6.73997 41.6546L1.92561 38.9037C0.733564 38.2158 0 36.9321 0 35.5566V14.4201C0 13.0447 0.733564 11.761 1.92561 11.0731L20.2197 0.481905C21.3659 -0.159964 22.9247 -0.159964 24.0709 0.481905L42.3651 11.0731C43.5571 11.7608 44.2907 13.0445 44.2907 14.4201V35.5568C44.2907 36.9322 43.5571 38.216 42.3651 38.9037L24.0709 49.4952C23.4749 49.7703 22.7872 49.9078 22.1453 49.9078V49.9077ZM27.7848 35.3732C19.7611 35.3732 18.1106 31.7054 18.1106 28.5876C18.1106 28.3125 18.3398 28.0374 18.6607 28.0374H21.0448C21.3199 28.0374 21.5493 28.2208 21.5493 28.4959C21.9161 30.9258 22.9706 32.1181 27.8306 32.1181C31.682 32.1181 33.3327 31.2469 33.3327 29.1838C33.3327 27.9916 32.8742 27.1205 26.8678 26.5243C21.8702 26.02 18.7524 24.9196 18.7524 20.9309C18.7524 17.2168 21.8701 15.0162 27.0971 15.0162C32.9657 15.0162 35.8543 17.0335 36.2211 21.435C36.2211 21.5726 36.1753 21.7101 36.0836 21.8476C35.9919 21.9393 35.8543 22.031 35.7168 22.031H33.3327C33.1033 22.031 32.8742 21.8476 32.8282 21.6184C32.278 19.0968 30.8567 18.2715 27.0971 18.2715C22.8791 18.2715 22.3746 19.7386 22.3746 20.839C22.3746 22.1688 22.9706 22.5812 28.6559 23.3148C34.2955 24.0483 36.9547 25.103 36.9547 29.0461C36.9088 33.0809 33.6078 35.3732 27.7848 35.3732V35.3732Z" fill="#539E43"/>
</g>
<defs>
<clipPath id="clip0">
<rect width="44.2907" height="50" fill="white"/>
</clipPath>
</defs>
</svg>
