<svg width="100%" height="100%" viewBox="0 0 198 69" fill="none" xmlns="http://www.w3.org/2000/svg">
<path d="M65.0367 32.8072C65.0367 16.9858 52.8844 0.613678 32.2615 0.613678C16.4029 0.613678 0.00604248 12.7659 0.00604248 33.3579C0.00604248 49.1794 12.1583 65.5824 32.7812 65.5824C39.5132 65.5492 46.0678 63.4212 51.5355 59.4939L61.0705 68.9979L65.2965 64.7719L56.3061 55.7814C61.8501 49.7239 65.0429 41.7977 65.0429 32.8072H65.0367ZM32.2553 6.41755C47.3033 6.41755 59.2328 18.0501 59.2328 33.0981C59.2328 46.0237 49.1781 59.7538 32.509 59.7538C15.8522 59.7538 5.79754 46.2836 5.79754 33.3641C5.79754 16.4784 19.3049 6.41755 32.2553 6.41755V6.41755ZM80.6292 19.368H86.1732V64.2335H80.6292V19.368ZM83.2774 13.2795C82.633 13.3124 81.9886 13.2139 81.3834 12.9899C80.7782 12.7659 80.2249 12.4212 79.7572 11.9767C79.2894 11.5322 78.9169 10.9972 78.6624 10.4043C78.4079 9.81131 78.2766 9.17277 78.2766 8.52749C78.2766 7.88221 78.4079 7.24367 78.6624 6.65071C78.9169 6.05774 79.2894 5.52274 79.7572 5.07824C80.2249 4.63375 80.7782 4.28904 81.3834 4.06508C81.9886 3.84112 82.633 3.74259 83.2774 3.77549C85.9195 3.77549 88.048 5.90399 88.048 8.54605C88.048 11.1881 85.9195 13.2795 83.2774 13.2795V13.2795ZM105.732 13.2795C105.107 13.2844 104.488 13.1656 103.909 12.9299C103.33 12.6942 102.804 12.3463 102.361 11.9063C101.917 11.4663 101.565 10.9428 101.325 10.3661C101.085 9.78936 100.961 9.17079 100.961 8.54605C100.96 7.91934 101.083 7.29863 101.323 6.71947C101.562 6.14032 101.914 5.61409 102.357 5.17094C102.8 4.72779 103.326 4.37642 103.905 4.13697C104.484 3.89751 105.105 3.77467 105.732 3.77549C108.38 3.77549 110.509 5.90399 110.509 8.54605C110.509 11.1881 108.38 13.2795 105.732 13.2795ZM103.09 19.368H108.665V64.2335H103.09V19.368ZM141.96 65.0379C131.645 65.0379 125.557 57.1117 125.557 49.2165V6.96205H131.132V19.368H150.69V24.912H131.132V49.4702C131.132 54.4635 135.092 59.7476 141.953 59.7476C143.791 59.7476 145.66 59.2279 147.244 58.1698L147.757 57.9037L150.399 62.6372L149.886 62.9342C147.455 64.2701 144.733 64.9903 141.96 65.0317V65.0379ZM178.695 65.2978C163.647 65.2978 154.656 53.4364 154.656 41.8039C154.656 26.7559 166.555 17.7654 178.187 17.7654C184.276 17.7654 189.009 19.8939 192.462 23.8539V19.3742H198.006V64.2397H192.462V59.2402C189.269 63.2064 184.536 65.304 178.701 65.304L178.695 65.2978ZM178.181 23.3342C169.191 23.3342 160.194 30.1961 160.194 41.7977C160.194 50.7881 167.056 59.7476 178.689 59.7476C181.368 59.7501 184.014 59.1588 186.438 58.0161C188.861 56.8735 191.001 55.208 192.703 53.1394V29.9053C190.907 27.8169 188.676 26.1462 186.167 25.0101C183.657 23.874 180.93 23.2999 178.175 23.328L178.181 23.3342Z" fill="white"/>
</svg>
