<svg width="100%" height="100%" viewBox="0 0 49 49" fill="none" xmlns="http://www.w3.org/2000/svg">
<g id="Group 12">
<circle id="Ellipse 5" cx="24.0522" cy="24.0522" r="24.0522" fill="#53C001"/>
<g id="cib:qiita">
<path id="Vector" d="M39.8186 23.8349C39.8186 16.1951 33.9024 8.28934 23.8624 8.28934C16.1419 8.28934 8.1593 14.1574 8.1593 24.1008C8.1593 31.7407 14.0755 39.6613 24.1154 39.6613C27.3928 39.6453 30.5838 38.6177 33.2457 36.7213L37.8877 41.3106L39.9451 39.2699L35.5682 34.9287C38.2672 32.0036 39.8216 28.1762 39.8216 23.8349H39.8186ZM23.8594 11.0919C31.1853 11.0919 36.993 16.709 36.993 23.9753C36.993 30.2169 32.098 36.8468 23.9829 36.8468C15.8738 36.8468 10.9788 30.3424 10.9788 24.1038C10.9788 15.9501 17.5547 11.0919 23.8594 11.0919Z" fill="white"/>
</g>
</g>
</svg>
