<svg width="57" height="50" viewBox="0 0 57 50" fill="none" xmlns="http://www.w3.org/2000/svg">
<g clip-path="url(#clip0)">
<path d="M46.1586 16.1896C45.5611 15.9846 44.9586 15.7947 44.3515 15.6201C44.4535 15.2034 44.5474 14.7918 44.6307 14.3874C45.9987 7.74685 45.1044 2.39707 42.0498 0.635664C39.1211 -1.05293 34.3314 0.707813 29.4941 4.91768C29.0173 5.33332 28.5512 5.76095 28.0961 6.20014C27.7914 5.90809 27.4813 5.62171 27.166 5.34115C22.0963 0.839831 17.0147 -1.05732 13.9634 0.709129C11.0373 2.40299 10.1708 7.43216 11.4024 13.7256C11.5249 14.3489 11.6633 14.969 11.8173 15.5852C11.098 15.7896 10.4039 16.0072 9.73969 16.2387C3.79583 18.3111 0 21.5587 0 24.9273C0 28.4065 4.075 31.8962 10.2658 34.0122C10.7677 34.183 11.2738 34.3414 11.7836 34.487C11.618 35.1507 11.471 35.819 11.3428 36.4909C10.1686 42.6751 11.0855 47.5854 14.0037 49.2686C17.0178 51.0067 22.0765 49.2203 27.0022 44.9144C27.4016 44.5643 27.7922 44.2043 28.1737 43.8348C28.6666 44.3104 29.1726 44.7721 29.6912 45.2194C34.4627 49.3251 39.175 50.983 42.0904 49.2953C45.1015 47.5521 46.0803 42.2771 44.8096 35.8594C44.7096 35.3566 44.5973 34.8563 44.473 34.3589C44.8283 34.2536 45.177 34.1453 45.5169 34.0326C51.9529 31.9004 56.1404 28.453 56.1404 24.9273C56.1404 21.5464 52.2219 18.2769 46.1586 16.1896V16.1896ZM44.7627 31.7563C44.4557 31.8578 44.1408 31.9558 43.8197 32.0512C43.1092 29.8019 42.1504 27.4102 40.977 24.939C42.0967 22.5267 43.0186 20.1655 43.7092 17.9308C44.2836 18.0971 44.8408 18.2723 45.3781 18.4572C50.5732 20.2458 53.7421 22.8898 53.7421 24.9273C53.7421 27.0975 50.3197 29.9148 44.7627 31.7563V31.7563ZM42.457 36.3251C43.0189 39.1629 43.0989 41.7286 42.7268 43.7346C42.3925 45.537 41.7202 46.7385 40.8886 47.2199C39.1195 48.244 35.336 46.9129 31.2555 43.4015C30.7731 42.9855 30.3024 42.5563 29.8439 42.1142C31.4259 40.3841 33.0068 38.3729 34.5498 36.1392C37.2638 35.8984 39.8279 35.5045 42.1531 34.967C42.2675 35.4291 42.3693 35.8822 42.457 36.3251V36.3251ZM19.1395 47.0429C17.411 47.6532 16.0342 47.6708 15.202 47.1909C13.4311 46.1697 12.695 42.2269 13.6991 36.9383C13.8185 36.3134 13.9552 35.6918 14.109 35.0745C16.4086 35.5833 18.9539 35.949 21.6743 36.1697C23.2279 38.3554 24.8544 40.3644 26.4936 42.1236C26.1453 42.4607 25.7887 42.7892 25.4241 43.1087C23.2458 45.0126 21.0632 46.3635 19.1395 47.0429V47.0429ZM11.0417 31.7429C8.30417 30.8072 6.04342 29.5911 4.49386 28.2642C3.10132 27.0719 2.39846 25.8879 2.39846 24.9273C2.39846 22.883 5.44605 20.2756 10.5292 18.5034C11.1461 18.2885 11.7917 18.0857 12.4616 17.8953C13.1643 20.1804 14.0857 22.5697 15.1978 24.9857C14.0713 27.4374 13.1366 29.8648 12.4272 32.1769C11.9619 32.0436 11.4999 31.8989 11.0417 31.7429V31.7429ZM13.7561 13.2648C12.7011 7.87294 13.4018 3.80562 15.1651 2.78479C17.0432 1.69751 21.1963 3.24772 25.5737 7.13457C25.8591 7.3886 26.1399 7.64778 26.416 7.91198C24.7849 9.66351 23.1732 11.6576 21.6336 13.8304C18.9932 14.0751 16.4658 14.4681 14.1421 14.9947C13.9989 14.4215 13.8702 13.8447 13.7561 13.265V13.2648ZM37.9726 19.2447C37.4237 18.2966 36.8545 17.3605 36.2653 16.437C38.0566 16.6635 39.7728 16.9642 41.3844 17.3317C40.9007 18.8826 40.2976 20.5039 39.5877 22.1661C39.0688 21.1817 38.5304 20.2076 37.9726 19.2447V19.2447ZM28.0971 9.62601C29.2033 10.8245 30.3112 12.1624 31.4009 13.6142C29.1904 13.5098 26.9761 13.5093 24.7656 13.6129C25.8564 12.1745 26.9737 10.8383 28.0971 9.62601ZM18.1583 19.2611C17.6075 20.2163 17.0791 21.1843 16.5735 22.1642C15.8752 20.5078 15.2776 18.8791 14.7897 17.3063C16.3914 16.9479 18.0996 16.655 19.8794 16.4326C19.2836 17.3618 18.7098 18.3048 18.1583 19.2609V19.2611ZM19.9305 33.5927C18.0917 33.3874 16.3579 33.1096 14.7566 32.7609C15.2522 31.16 15.8629 29.4966 16.5763 27.8047C17.084 28.7854 17.6146 29.7539 18.1678 30.7096C18.7366 31.692 19.3257 32.6543 19.9305 33.5927ZM28.1634 40.3975C27.0265 39.1712 25.8928 37.8144 24.7855 36.3552C25.8605 36.3973 26.9564 36.4188 28.0702 36.4188C29.2145 36.4188 30.3456 36.3931 31.459 36.3436C30.3658 37.8291 29.2621 39.1879 28.1634 40.3975ZM39.6103 27.7183C40.3607 29.4289 40.9932 31.0835 41.4954 32.6569C39.8678 33.0284 38.1103 33.3276 36.2586 33.5497C36.8519 32.609 37.4265 31.6567 37.982 30.6931C38.5468 29.7137 39.0897 28.7219 39.6103 27.7183V27.7183ZM35.9046 29.4949C35.0542 30.9722 34.156 32.4214 33.2114 33.8403C31.5003 33.9615 29.7855 34.0217 28.0702 34.0208C26.323 34.0208 24.6237 33.9664 22.9873 33.8602C22.018 32.4446 21.1027 30.9928 20.2432 29.508H20.2434C19.388 28.0311 18.5889 26.5222 17.848 24.9846C18.5871 23.4466 19.3837 21.937 20.2362 20.4589L20.236 20.4591C21.0882 18.9807 21.9962 17.5351 22.9581 16.1256C24.6276 15.9993 26.3397 15.9335 28.07 15.9335H28.0702C29.8083 15.9335 31.5226 15.9999 33.1917 16.1271C34.1439 17.5345 35.0461 18.9751 35.8967 20.4462C36.7521 21.921 37.5592 23.4233 38.3169 24.9506C37.567 26.4935 36.7624 28.0092 35.9046 29.4949V29.4949ZM40.852 2.7133C42.7318 3.79751 43.4629 8.16965 42.2818 13.9032C42.2064 14.269 42.1217 14.6416 42.0296 15.0194C39.7002 14.4817 37.1711 14.0819 34.523 13.8335C32.9805 11.6368 31.382 9.63961 29.7774 7.91066C30.1979 7.50529 30.6285 7.11043 31.0686 6.72645C35.2134 3.11966 39.0871 1.69553 40.852 2.7133V2.7133ZM28.0702 19.9142C30.8388 19.9142 33.0833 22.1587 33.0833 24.9273C33.0833 27.696 30.8388 29.9405 28.0702 29.9405C25.3015 29.9405 23.057 27.696 23.057 24.9273C23.057 22.1587 25.3015 19.9142 28.0702 19.9142V19.9142Z" fill="#00D8FF"/>
</g>
<defs>
<clipPath id="clip0">
<rect width="56.1404" height="50" fill="white"/>
</clipPath>
</defs>
</svg>
