<svg width="100" height="100" viewBox="0 0 100 100" fill="none" xmlns="http://www.w3.org/2000/svg">
<path d="M7.91669 45.7813V81.6406C7.91669 82.8061 8.8583 83.75 10.0209 83.75H20.5417V41.5625H12.125C9.80123 41.5625 7.91669 43.4517 7.91669 45.7813ZM55.2604 39.4531H52.1042V34.1797C52.1042 33.597 51.6334 33.125 51.0521 33.125H48.9479C48.3667 33.125 47.8959 33.597 47.8959 34.1797V42.6172C47.8959 43.1999 48.3667 43.6719 48.9479 43.6719H55.2604C55.8417 43.6719 56.3125 43.1999 56.3125 42.6172V40.5078C56.3125 39.9251 55.8417 39.4531 55.2604 39.4531ZM73.376 31.0209L52.3343 16.958C51.6429 16.4963 50.8307 16.25 50 16.25C49.1693 16.25 48.3571 16.4963 47.6657 16.958L26.624 31.0209C26.0477 31.4061 25.5751 31.9279 25.2482 32.5401C24.9213 33.1524 24.7502 33.836 24.75 34.5304V83.75H41.5834V64.7656C41.5834 63.6002 42.525 62.6563 43.6875 62.6563H56.3125C57.4751 62.6563 58.4167 63.6002 58.4167 64.7656V83.75H75.25V34.5317C75.25 33.1211 74.5464 31.8027 73.376 31.0209ZM50 50C44.1899 50 39.4792 45.2776 39.4792 39.4531C39.4792 33.6286 44.1899 28.9063 50 28.9063C55.8101 28.9063 60.5208 33.6286 60.5208 39.4531C60.5208 45.2776 55.8101 50 50 50ZM87.875 41.5625H79.4583V83.75H89.9792C91.1417 83.75 92.0833 82.8061 92.0833 81.6406V45.7813C92.0833 43.4517 90.1988 41.5625 87.875 41.5625Z" fill="white"/>
</svg>
