<svg width="50" height="50" viewBox="0 0 50 50" fill="none" xmlns="http://www.w3.org/2000/svg">
<path d="M10.2712 36.9252C10.023 37.135 9.72069 37.2727 9.39787 37.323C9.07504 37.3734 8.74439 37.3344 8.4427 37.2104L5.23724 35.8877C4.91543 35.7553 4.64046 35.5321 4.4469 35.246C4.25333 34.9599 4.14981 34.6238 4.14935 34.2798V15.7086C4.15074 15.3656 4.2547 15.0307 4.44823 14.7457C4.64175 14.4608 4.91622 14.2385 5.23724 14.1067L8.44872 12.79C8.75037 12.6657 9.08107 12.6266 9.40394 12.677C9.72681 12.7273 10.0292 12.8651 10.2773 13.0751L10.9958 13.683C10.8493 13.5795 10.6767 13.518 10.4969 13.5054C10.3172 13.4928 10.1374 13.5295 9.97759 13.6116C9.81774 13.6936 9.68404 13.8177 9.59132 13.9701C9.4986 14.1225 9.45049 14.2973 9.45231 14.475V35.5332C9.45049 35.711 9.4986 35.8857 9.59132 36.0381C9.68404 36.1906 9.81774 36.3147 9.97759 36.3967C10.1374 36.4787 10.3172 36.5155 10.4969 36.5028C10.6767 36.4902 10.8493 36.4288 10.9958 36.3253L10.2712 36.9252Z" fill="#52218A"/>
<path d="M5.22008 35.8851C4.90335 35.7526 4.63272 35.5289 4.44221 35.2424C4.25169 34.9558 4.14981 34.6191 4.14935 34.2745V34.1297C4.14955 34.3333 4.21115 34.532 4.32605 34.6998C4.44095 34.8675 4.60375 34.9964 4.79301 35.0694C4.98228 35.1424 5.18913 35.1561 5.38632 35.1088C5.58351 35.0614 5.76179 34.9552 5.89769 34.8041L32.8122 4.91276C33.1931 4.53074 33.6828 4.27691 34.2136 4.18631C34.7444 4.0957 35.2902 4.17281 35.7754 4.40697L44.369 8.56241C44.812 8.7751 45.1861 9.10915 45.4483 9.52606C45.7104 9.94297 45.8499 10.4258 45.8506 10.9188V11.02C45.8505 10.7071 45.7619 10.4007 45.5952 10.1365C45.4285 9.87218 45.1905 9.66084 44.9088 9.52704C44.6272 9.39323 44.3135 9.34245 44.0043 9.38061C43.695 9.41877 43.4029 9.5443 43.1619 9.74259L10.8839 36.3156L10.1767 36.9245C9.93237 37.1346 9.6348 37.2726 9.31707 37.323C8.99933 37.3734 8.6739 37.3343 8.37697 37.2101L5.22008 35.8851Z" fill="#6C33AF"/>
<path d="M5.22008 14.1058C4.90335 14.2376 4.63272 14.4598 4.44221 14.7446C4.25169 15.0294 4.14981 15.364 4.14935 15.7064V15.8503C4.14955 15.648 4.21115 15.4505 4.32605 15.2838C4.44095 15.1171 4.60375 14.9891 4.79301 14.9165C4.98228 14.844 5.18913 14.8303 5.38632 14.8774C5.58351 14.9244 5.76179 15.03 5.89769 15.1801L32.8122 44.8837C33.1928 45.2639 33.6825 45.5165 34.2135 45.6065C34.7444 45.6966 35.2903 45.6196 35.7754 45.3863L44.369 41.2587C44.8124 41.0474 45.1869 40.7152 45.4491 40.3004C45.7113 39.8857 45.8505 39.4054 45.8506 38.915V38.8164C45.8505 39.1273 45.7619 39.4318 45.5952 39.6944C45.4285 39.9571 45.1905 40.1671 44.9088 40.3001C44.6272 40.4331 44.3135 40.4835 44.0043 40.4456C43.695 40.4077 43.4029 40.2829 43.1619 40.0859L10.8839 13.6781L10.1767 13.0729C9.93237 12.8641 9.6348 12.727 9.31707 12.6769C8.99933 12.6268 8.6739 12.6656 8.37697 12.7891L5.22008 14.1058Z" fill="#854CC7"/>
<path d="M35.7507 45.387C35.2641 45.6199 34.7171 45.6966 34.1851 45.6063C33.653 45.5161 33.1621 45.2634 32.7801 44.8831C32.9942 45.097 33.2671 45.2428 33.5643 45.3018C33.8614 45.3609 34.1695 45.3306 34.4494 45.2149C34.7293 45.0992 34.9685 44.9031 35.1367 44.6517C35.3049 44.4002 35.3945 44.1046 35.3942 43.8022V5.9903C35.3945 5.68797 35.3049 5.39235 35.1367 5.14087C34.9685 4.88939 34.7293 4.69337 34.4494 4.57763C34.1695 4.46189 33.8614 4.43164 33.5643 4.49071C33.2671 4.54978 32.9942 4.69551 32.7801 4.90945C33.1621 4.52914 33.653 4.27644 34.1851 4.18619C34.7171 4.09595 35.2641 4.1726 35.7507 4.40558L44.3614 8.53731C44.8064 8.74896 45.1823 9.08185 45.4458 9.49756C45.7093 9.91327 45.8497 10.3949 45.8506 10.8867V38.9058C45.8504 39.3968 45.7112 39.8778 45.4492 40.2935C45.1871 40.7091 44.8128 41.0425 44.3693 41.2552L35.7507 45.387Z" fill="#B179F1"/>
</svg>
