<svg width="50" height="50" viewBox="0 0 50 50" fill="none" xmlns="http://www.w3.org/2000/svg">
<path d="M45.3281 7.85935L36.3188 3.52185C35.81 3.27654 35.2375 3.19558 34.6806 3.29021C34.1238 3.38484 33.6101 3.65037 33.2109 4.04998L3.71876 30.9375C3.36094 31.2622 3.14674 31.7157 3.1233 32.1983C3.09986 32.6809 3.26909 33.1531 3.59376 33.5109C3.63283 33.5531 3.67189 33.5937 3.71408 33.6312L6.12189 35.8187C6.43652 36.1051 6.84151 36.2722 7.26652 36.291C7.69153 36.3099 8.10972 36.1793 8.44845 35.9219L43.9719 8.98435C44.2402 8.78075 44.56 8.65608 44.8954 8.62438C45.2307 8.59268 45.5682 8.65521 45.8699 8.80493C46.1716 8.95466 46.4256 9.18563 46.6031 9.47184C46.7807 9.75806 46.8749 10.0882 46.875 10.425V10.3203C46.875 9.80607 46.7298 9.30231 46.4561 8.86695C46.1825 8.4316 45.7915 8.08234 45.3281 7.85935V7.85935Z" fill="#0065A9"/>
<path d="M45.3281 42.1406L36.3188 46.4797C35.8098 46.7243 35.2375 46.8049 34.6808 46.7103C34.1241 46.6157 33.6105 46.3506 33.2109 45.9516L3.71876 19.0625C3.36094 18.7378 3.14674 18.2843 3.1233 17.8017C3.09986 17.3191 3.26909 16.8469 3.59376 16.4891C3.63283 16.4469 3.67189 16.4063 3.71408 16.3688L6.12189 14.1813C6.43684 13.8937 6.84276 13.7259 7.26882 13.707C7.69488 13.6882 8.11403 13.8195 8.45314 14.0781L43.9719 41.0156C44.2402 41.2193 44.56 41.3439 44.8954 41.3756C45.2307 41.4073 45.5682 41.3448 45.8699 41.1951C46.1716 41.0453 46.4256 40.8144 46.6031 40.5282C46.7807 40.2419 46.8749 39.9118 46.875 39.575V39.6875C46.8733 40.2004 46.7274 40.7024 46.4538 41.1362C46.1803 41.57 45.7902 41.9181 45.3281 42.1406V42.1406Z" fill="#007ACC"/>
<path d="M36.3187 46.4797C35.8098 46.7243 35.2374 46.8049 34.6807 46.7103C34.1241 46.6157 33.6105 46.3506 33.2109 45.9516C33.4353 46.173 33.72 46.3233 34.0295 46.3837C34.3389 46.444 34.6593 46.4116 34.9504 46.2907C35.2415 46.1697 35.4905 45.9655 35.6661 45.7037C35.8417 45.4419 35.9361 45.134 35.9375 44.8188V5.18126C35.9377 4.86453 35.844 4.55484 35.6681 4.29143C35.4922 4.02802 35.2421 3.82274 34.9494 3.7016C34.6568 3.58045 34.3347 3.54889 34.0241 3.61092C33.7135 3.67294 33.4283 3.82576 33.2047 4.05001C33.6039 3.65055 34.1174 3.385 34.6742 3.29011C35.2309 3.19522 35.8034 3.27567 36.3125 3.52033L45.3203 7.85158C45.7851 8.07345 46.1777 8.42223 46.4528 8.85767C46.7279 9.29311 46.8742 9.79746 46.875 10.3125V39.6875C46.8751 40.2022 46.7298 40.7064 46.4558 41.142C46.1819 41.5777 45.7904 41.9271 45.3265 42.15L36.3187 46.4797Z" fill="#1F9CF0"/>
</svg>
