<svg width="92" height="92" viewBox="0 0 92 92" fill="none" xmlns="http://www.w3.org/2000/svg">
<path d="M62.7134 53.6667C63.02 51.1367 63.25 48.6067 63.25 46C63.25 43.3933 63.02 40.8633 62.7134 38.3333H75.67C76.2834 40.7867 76.6667 43.355 76.6667 46C76.6667 48.645 76.2834 51.2133 75.67 53.6667H62.7134ZM55.9284 74.98C58.2284 70.725 59.9917 66.125 61.2184 61.3333H72.5267C68.8128 67.7284 62.9208 72.5726 55.9284 74.98V74.98ZM54.97 53.6667H37.03C36.6467 51.1367 36.4167 48.6067 36.4167 46C36.4167 43.3933 36.6467 40.825 37.03 38.3333H54.97C55.315 40.825 55.5834 43.3933 55.5834 46C55.5834 48.6067 55.315 51.1367 54.97 53.6667ZM46 76.5133C42.8184 71.9133 40.25 66.815 38.6784 61.3333H53.3217C51.75 66.815 49.1817 71.9133 46 76.5133ZM30.6667 30.6667H19.4734C23.149 24.2543 29.0367 19.4024 36.0334 17.02C33.7334 21.275 32.0084 25.875 30.6667 30.6667ZM19.4734 61.3333H30.6667C32.0084 66.125 33.7334 70.725 36.0334 74.98C29.0514 72.5714 23.1719 67.7262 19.4734 61.3333V61.3333ZM16.33 53.6667C15.7167 51.2133 15.3334 48.645 15.3334 46C15.3334 43.355 15.7167 40.7867 16.33 38.3333H29.2867C28.98 40.8633 28.75 43.3933 28.75 46C28.75 48.6067 28.98 51.1367 29.2867 53.6667H16.33ZM46 15.4483C49.1817 20.0483 51.75 25.185 53.3217 30.6667H38.6784C40.25 25.185 42.8184 20.0483 46 15.4483V15.4483ZM72.5267 30.6667H61.2184C60.0186 25.9189 58.2421 21.3359 55.9284 17.02C62.9817 19.435 68.8467 24.3033 72.5267 30.6667ZM46 7.66666C24.8017 7.66666 7.66669 24.9167 7.66669 46C7.66669 56.1666 11.7054 65.9169 18.8943 73.1058C22.4538 76.6653 26.6797 79.4889 31.3305 81.4154C35.9813 83.3418 40.966 84.3333 46 84.3333C56.1667 84.3333 65.9169 80.2946 73.1058 73.1058C80.2947 65.9169 84.3334 56.1666 84.3334 46C84.3334 40.966 83.3418 35.9813 81.4154 31.3305C79.489 26.6796 76.6654 22.4538 73.1058 18.8942C69.5462 15.3347 65.3204 12.511 60.6696 10.5846C56.0187 8.65818 51.034 7.66666 46 7.66666V7.66666Z" fill="white"/>
</svg>
